<svg width="15" height="10" viewBox="0 0 15 10" fill="none" xmlns="http://www.w3.org/2000/svg">
<g clip-path="url(#clip0_98_41199)">
<path d="M7.68906 9.21616C7.55042 9.21696 7.41299 9.19038 7.28464 9.13796C7.15628 9.08553 7.03954 9.00829 6.94111 8.91065L0.62036 2.5899C0.42199 2.39153 0.310547 2.12249 0.310547 1.84195C0.310547 1.56141 0.42199 1.29236 0.62036 1.09399C0.81873 0.895623 1.08778 0.78418 1.36832 0.78418C1.64885 0.78418 1.9179 0.895623 2.11627 1.09399L7.68906 6.67732L13.2619 1.10453C13.4634 0.931944 13.7226 0.841761 13.9877 0.852002C14.2529 0.862242 14.5044 0.972153 14.692 1.15977C14.8796 1.34738 14.9895 1.59888 14.9998 1.86401C15.01 2.12915 14.9198 2.38838 14.7472 2.5899L8.42649 8.91065C8.23027 9.10527 7.96543 9.21499 7.68906 9.21616Z" fill="#222222"/>
</g>
<defs>
<clipPath id="clip0_98_41199">
<rect width="14.69" height="8.43199" fill="white" transform="translate(0.310547 0.78418)"/>
</clipPath>
</defs>
</svg>
