<svg width="29" height="28" viewBox="0 0 29 28" fill="none" xmlns="http://www.w3.org/2000/svg">
<path d="M14.3117 0.700684C6.96816 0.700684 1.01172 6.65684 1.01172 14.0001C1.01172 21.3434 6.96816 27.2996 14.3117 27.2996C21.6553 27.2996 27.6117 21.3434 27.6117 14.0001C27.6117 6.65684 21.6553 0.700684 14.3117 0.700684ZM15.7532 21.5338C15.7521 21.7571 15.6629 21.9709 15.505 22.1287C15.3471 22.2866 15.1333 22.3758 14.9101 22.3769H12.7614C12.5381 22.3758 12.3243 22.2866 12.1664 22.1287C12.0086 21.9709 11.9194 21.7571 11.9183 21.5338V20.1467C11.9194 19.9234 12.0086 19.7096 12.1664 19.5518C12.3243 19.3939 12.5381 19.3047 12.7614 19.3036H14.9101C15.1333 19.3047 15.3471 19.3939 15.505 19.5518C15.6629 19.7096 15.7521 19.9234 15.7532 20.1467V21.5338ZM19.1529 13.2657C18.5817 14.0544 17.8747 14.68 17.0045 15.1425C16.5148 15.4687 16.1883 15.7949 16.0253 16.1757C15.9164 16.4207 15.8349 16.7469 15.7803 17.1277C15.7532 17.427 15.4813 17.6446 15.182 17.6446H12.5438C12.1902 17.6446 11.9183 17.3453 11.9454 17.0191C11.9998 16.2846 12.1902 15.7134 12.4895 15.2783C12.8703 14.7617 13.5501 14.1359 14.5293 13.4561C15.0462 13.1299 15.427 12.7491 15.726 12.2868C16.0253 11.8242 16.1611 11.2805 16.1611 10.655C16.1611 10.0294 15.9979 9.51256 15.6445 9.13176C15.2909 8.75096 14.8286 8.56056 14.2028 8.56056C13.6862 8.56056 13.2782 8.7238 12.9246 9.02312C12.707 9.21352 12.571 9.45824 12.4895 9.78472C12.3806 10.1655 12.0269 10.41 11.619 10.41L9.1712 10.3556C8.87216 10.3556 8.62716 10.0838 8.65432 9.78444C8.73608 8.47908 9.25296 7.49992 10.1504 6.79292C11.1838 6.00416 12.5166 5.5962 14.2028 5.5962C15.9979 5.5962 17.4124 6.05848 18.4459 6.95588C19.4794 7.85328 19.9963 9.07744 19.9963 10.6275C19.9963 11.6067 19.697 12.4772 19.1529 13.2657Z" fill="#717684"/>
</svg>
